@startuml 勤怠管理

package datasource {
    class 日次勤怠リポジトリCSV << datasource >> {
        +void persist(日次勤怠)
        +List<日次勤怠> findMonthlyAttendance(勤怠年月)
    }
}

package domain {
    package rule {
        class 就業規則 {           
        }

        enum 休憩時間 {
            昼休み
            夕方休憩
            深夜休憩
            +int calcActualTotalBreakTime(勤怠開始時刻,勤怠終了時刻,ChronoUnit)
        }
    }

    package monthly {
        entity 月次勤怠 {
            勤怠年月
            当月の日次勤怠
        }

        class 当月の日次勤怠 {
            List<日次勤怠> value
            +勤務時間集計結果 totalWorkedHours()
        }

        class 勤怠年月 {
            YearMonth value        
        }

        class 勤務時間集計結果 {
            勤務時間集計
            残業時間集計
        }

        class 勤務時間集計 {
            int value        
        }

        class 残業時間集計 {
            int value        
        }
        
        当月の日次勤怠-->勤務時間集計結果
        勤務時間集計結果-->勤務時間集計
        勤務時間集計結果-->残業時間集計
    }

    package daily {
        class 日次勤怠ファクトリ {
            +日次勤怠 create(勤怠日付,勤怠開始時刻,勤怠終了時刻)
        }
        
        entity 日次勤怠 {
            勤怠日付
            勤怠開始時刻
            勤怠終了時刻
            勤務時間
            残業時間
        }
        
        class 勤怠日付 {
            LocalDate value        
        }

        class 勤怠開始時刻 {
            LocalTime value        
        }

        class 勤怠終了時刻 {
            LocalTime value        
        }

        class 勤務時間_分 {
            int value         
        }

        class 残業時間_分 {
            int value
        }
    }
    日次勤怠ファクトリ-->日次勤怠
    日次勤怠ファクトリ-->休憩時間

    月次勤怠-->勤怠年月
    月次勤怠-->当月の日次勤怠

    当月の日次勤怠  "1" o-> "0..31" 日次勤怠

    日次勤怠-->勤怠日付
    日次勤怠-->勤怠開始時刻
    日次勤怠-->勤怠終了時刻
    日次勤怠-->勤務時間_分
    日次勤怠-->残業時間_分
    勤務時間_分--->休憩時間
}

package service {
    class 勤怠管理サービス << service >> {
        +void inputAttendance(日次勤怠)
        +月次勤怠 totalWorkingHours(勤怠年月)
    }

    interface 日次勤怠リポジトリ << repository >> {
        +void persist(日次勤怠)
        +月次勤怠 findMonthlyAttendance(勤怠年月)
    }
    勤怠管理サービス--->日次勤怠ファクトリ
    勤怠管理サービス-->勤怠リポジトリ
    日次勤怠リポジトリ<|."0..31" 日次勤怠リポジトリCSV


    日次勤怠リポジトリ--->月次勤怠
    日次勤怠リポジトリ--->日次勤怠

}

package api {
    class 勤怠管理メイン {
        +void main(String[] args)
        void input(String[] args)
        void total()
    }

    enum メソッドタイプ {
        INPUT
        TOTAL
        NONE
        +メソッドタイプ of(String str)
    }
    
    class 勤怠入力引数 {
        String 勤怠日時
        String 勤怠開始時間
        String 勤怠終了時間
    }

    勤怠管理メイン--->勤怠管理サービス
    勤怠管理メイン-->メソッドタイプ
    勤怠管理メイン-->勤怠入力引数
}
@enduml
